<?xml version="1.0" encoding="utf-8"?>
<!-- Generator: Adobe Illustrator 24.0.2, SVG Export Plug-In . SVG Version: 6.00 Build 0)  -->
<svg version="1.1" id="Layer_1" xmlns="http://www.w3.org/2000/svg" xmlns:xlink="http://www.w3.org/1999/xlink" x="0px" y="0px"
	 viewBox="0 0 16 16" style="enable-background:new 0 0 16 16;" xml:space="preserve">
<style type="text/css">
	.st0{fill:#4BAB4C;}
	.st1{fill:#2B3E56;}
	.st2{fill:#FFFFFF;}
</style>
<g>
	<path class="st0" d="M13.78,16H2.22C0.99,16,0,15.01,0,13.78L0,2.22C0,0.99,0.99,0,2.22,0l11.56,0C15.01,0,16,0.99,16,2.22v11.56
		C16,15.01,15.01,16,13.78,16z"/>
	<path class="st1" d="M13.1,15.03H2.9c-1.07,0-1.93-0.86-1.93-1.93V2.9c0-1.07,0.86-1.93,1.93-1.93H13.1c1.07,0,1.93,0.86,1.93,1.93
		V13.1C15.03,14.16,14.16,15.03,13.1,15.03z"/>
	<path class="st2" d="M12.01,6.59h-0.35v0.01H3.9C3.53,6.64,3.25,6.95,3.25,7.32v3.18c0,0.41,0.33,0.74,0.74,0.74H5v1.7
		c0,0.17,0.14,0.32,0.32,0.32h5.37c0.17,0,0.32-0.14,0.32-0.32v-1.7h1.01c0.41,0,0.74-0.33,0.74-0.74V7.32
		C12.75,6.92,12.42,6.59,12.01,6.59z M10.37,12.63H5.63c0-0.06,0-2.51,0-2.59h4.74C10.37,10.12,10.37,12.57,10.37,12.63z
		 M10.69,8.44H9.88c-0.17,0-0.32-0.14-0.32-0.32c0-0.17,0.14-0.32,0.32-0.32h0.81c0.17,0,0.32,0.14,0.32,0.32
		C11,8.3,10.86,8.44,10.69,8.44z"/>
	<path class="st2" d="M5.49,5.92c0-1.39,1.12-2.51,2.51-2.51c1.39,0,2.51,1.12,2.51,2.51c0,0.11-0.01,0.23-0.02,0.34h0.68
		c0.01-0.11,0.02-0.22,0.02-0.34c0-1.76-1.43-3.18-3.18-3.18c-1.76,0-3.18,1.43-3.18,3.18c0,0.11,0.01,0.23,0.02,0.34h0.68
		C5.5,6.15,5.49,6.04,5.49,5.92z"/>
	<path class="st2" d="M7.01,5.94c0-0.54,0.44-0.99,0.99-0.99s0.99,0.44,0.99,0.99c0,0.11-0.02,0.22-0.06,0.32h0.7
		c0.02-0.1,0.03-0.21,0.03-0.32c0-0.92-0.74-1.66-1.66-1.66c-0.92,0-1.66,0.74-1.66,1.66c0,0.11,0.01,0.22,0.03,0.32h0.7
		C7.03,6.16,7.01,6.05,7.01,5.94z"/>
</g>
</svg>
