<svg width="96" height="96" viewBox="0 0 96 96" fill="none" xmlns="http://www.w3.org/2000/svg">
<g clip-path="url(#clip0_25014_83913)">
<g clip-path="url(#clip1_25014_83913)">
<g clip-path="url(#clip2_25014_83913)">
<g clip-path="url(#clip3_25014_83913)">
<path opacity="0.4" d="M38.4023 41.0924C41.0039 43.6237 44.2031 44.9244 48 44.9948C51.7969 44.9244 54.9961 43.6237 57.5977 41.0924C60.1289 38.4908 61.4297 35.2916 61.5 31.4948C61.4297 27.6979 60.1289 24.4987 57.5977 21.8971C54.9961 19.3658 51.7969 18.0651 48 17.9948C44.2031 18.0651 41.0039 19.3658 38.4023 21.8971C35.8711 24.4987 34.5703 27.6979 34.5 31.4948C34.5703 35.2916 35.8711 38.4908 38.4023 41.0924Z" fill="#0070F4"/>
<path opacity="0.8" d="M74.1854 62.6511C69.0497 71.8102 59.2478 78 48.0001 78C36.7525 78 26.9506 71.8103 21.8149 62.6513C25.4321 54.8578 32.9119 49.5052 41.5494 49.5052H54.4508C63.0892 49.5052 70.5685 54.8577 74.1854 62.6511Z" fill="#0070F4"/>
</g>
</g>
</g>
</g>
<defs>
<clipPath id="clip0_25014_83913">
<path d="M0 48C0 21.4903 21.4903 0 48 0C74.5097 0 96 21.4903 96 48C96 74.5097 74.5097 96 48 96C21.4903 96 0 74.5097 0 48Z" fill="white"/>
</clipPath>
<clipPath id="clip1_25014_83913">
<rect width="96" height="96" fill="white"/>
</clipPath>
<clipPath id="clip2_25014_83913">
<rect width="96" height="96" rx="48" fill="white"/>
</clipPath>
<clipPath id="clip3_25014_83913">
<rect width="96" height="96" fill="white"/>
</clipPath>
</defs>
</svg>
