<?xml version="1.0" encoding="utf-8"?>
<!-- Generator: Adobe Illustrator 21.0.0, SVG Export Plug-In . SVG Version: 6.00 Build 0)  -->
<svg version="1.1" id="Layer_2" xmlns="http://www.w3.org/2000/svg" xmlns:xlink="http://www.w3.org/1999/xlink" x="0px" y="0px"
	 viewBox="0 0 512 512" style="enable-background:new 0 0 512 512;" xml:space="preserve">
<style type="text/css">
	.st0{fill:#4CAC4C;}
	.st1{fill:none;stroke:#FFFFFF;stroke-width:22;stroke-miterlimit:10;}
	.st2{fill:#FFFFFF;}
</style>
<circle class="st0" cx="256" cy="256" r="256"/>
<path class="st1" d="M154.5,297c-5.1-12.7-8-26.5-8-41c0-36.4,17.7-68.6,45.1-88.5"/>
<path class="st1" d="M303.3,354.7c-14.3,6.9-30.4,10.7-47.3,10.7c-21.1,0-40.8-6-57.6-16.3"/>
<path class="st1" d="M311.3,161.5c32.4,19,54.2,54.2,54.2,94.5c0,13.1-2.3,25.7-6.6,37.4c-2.1,5.8-4.7,11.3-7.7,16.6"/>
<path class="st2" d="M309.1,112.3H202.9c-9.8,0-17.7,7.9-17.7,17.7v70.8c0,9.8,7.9,17.7,17.7,17.7h39.9l26.5,0.1h39.9
	c9.8,0,17.7-7.9,17.7-17.7v-35.4V130C326.9,120.2,318.9,112.3,309.1,112.3z M291.5,183.1h-70.9v-35.4h70.9V183.1z"/>
<path class="st2" d="M204.1,289.4H97.8c-9.8,0-17.7,7.9-17.7,17.7v70.8c0,9.8,7.9,17.7,17.7,17.7h39.9l26.5,0.1h39.9
	c9.8,0,17.7-7.9,17.7-17.7v-35.4v-35.5C221.9,297.3,213.9,289.4,204.1,289.4z M186.5,360.2h-70.9v-35.4h70.9V360.2z"/>
<path class="st2" d="M414.1,293.4H307.9c-9.8,0-17.7,7.9-17.7,17.7v70.8c0,9.8,7.9,17.7,17.7,17.7h39.9l26.5,0.1h39.9
	c9.8,0,17.7-7.9,17.7-17.7v-35.4v-35.5C431.9,301.3,423.9,293.4,414.1,293.4z M396.5,364.2h-70.9v-35.4h70.9V364.2z"/>
</svg>
