<svg id="Layer_1" data-name="Layer 1" xmlns="http://www.w3.org/2000/svg" xmlns:xlink="http://www.w3.org/1999/xlink" width="16" height="16" viewBox="0 0 16 16"><defs><style>.cls-1{fill:url(#linear-gradient);}.cls-2{fill:url(#linear-gradient-2);}</style><linearGradient id="linear-gradient" x1="-317.86" y1="337.65" x2="-317.85" y2="337.65" gradientTransform="matrix(0, -287.16, -287.16, 0, 96966.97, -91267.71)" gradientUnits="userSpaceOnUse"><stop offset="0" stop-color="#096fd2"/><stop offset="1" stop-color="#0b7fdd"/></linearGradient><linearGradient id="linear-gradient-2" x1="-318.33" y1="337.18" x2="-318.31" y2="337.18" gradientTransform="matrix(0, -1024.08, -1024.08, 0, 345308.41, -325976.78)" gradientUnits="userSpaceOnUse"><stop offset="0" stop-color="#0564c8"/><stop offset="1" stop-color="#0e8ee9"/></linearGradient></defs><title>teamview</title><polygon id="_Path_" data-name="&lt;Path&gt;" class="cls-1" points="6.4 5.8 5.8 7.2 10.2 7.2 9.6 5.8 14 8 9.6 10.2 10.2 8.8 5.8 8.8 6.4 10.2 2 8 6.4 5.8"/><path id="_Compound_Path_" data-name="&lt;Compound Path&gt;" class="cls-2" d="M15.1,16H.9a.9.9,0,0,1-.9-.9V.9A.9.9,0,0,1,.9,0H15a.92.92,0,0,1,1,.9V15A.92.92,0,0,1,15.1,16ZM7.9,1.4A6.57,6.57,0,0,0,1.4,8,6.53,6.53,0,0,0,8,14.6,6.73,6.73,0,0,0,14.6,8,6.49,6.49,0,0,0,7.9,1.4Z"/></svg>