<svg id="Layer_1" data-name="Layer 1" xmlns="http://www.w3.org/2000/svg" xmlns:xlink="http://www.w3.org/1999/xlink" width="16" height="16" viewBox="0 0 16 16"><defs><style>.cls-1{fill:#256ebe;}.cls-2{fill:url(#linear-gradient);}.cls-3{fill:#fff;}</style><linearGradient id="linear-gradient" x1="5.03" y1="15.7" x2="11.53" y2="3.23" gradientTransform="matrix(1, 0, 0, -1, 0, 18)" gradientUnits="userSpaceOnUse"><stop offset="0" stop-color="#3687d5"/><stop offset="1" stop-color="#2673cc"/></linearGradient></defs><title>ultra</title><circle class="cls-1" cx="8" cy="8" r="8"/><circle class="cls-2" cx="8" cy="8" r="7.9"/><polygon class="cls-3" points="11 5.2 4.9 5.2 4.9 9.4 11 5.2"/><path class="cls-3" d="M11.2,4.1H4.8a1,1,0,0,0-1,1V9.5a1,1,0,0,0,1,1H6.6v.8h-1a.3.3,0,0,0,0,.6h4.7a.3.3,0,0,0,0-.6h-1v-.8h1.8a1,1,0,0,0,1-1V5.1A.92.92,0,0,0,11.2,4.1Zm.2,5.3a.27.27,0,0,1-.3.3H4.9a.27.27,0,0,1-.3-.3V5.2a.27.27,0,0,1,.3-.3h6.2a.27.27,0,0,1,.3.3Z"/></svg>