<svg xmlns="http://www.w3.org/2000/svg" viewBox="0 0 1341 561" width="1341" height="561" role="img" aria-label="WASABI">
  <rect width="1341" height="561" fill="#0D0D0B"/>
  <g fill="#EDE7D0">
    <path transform="translate(110.00,380.50) scale(0.28249,-0.28249)" d="M907 708V688Q888 684 865.0 665.5Q842 647 828 601L639 -5Q637 -5 635.0 -5.0Q633 -5 631 -5Q629 -5 627.0 -5.0Q625 -5 623 -5L411 624Q398 663 382.0 675.0Q366 687 352 688V708Q370 707 397.0 706.0Q424 705 449 705Q488 705 522.0 706.0Q556 707 577 708V688Q547 687 529.5 682.0Q512 677 509.5 660.0Q507 643 519 604L668 143L654 131L786 546Q804 601 802.5 631.5Q801 662 780.0 674.5Q759 687 717 688V708Q746 707 776.0 706.0Q806 705 832 705Q858 705 875.0 706.0Q892 707 907 708ZM208 708V688Q182 686 170.5 678.0Q159 670 159.5 652.5Q160 635 170 604L325 131L300 106L440 553L455 529L290 -5Q288 -5 286.0 -5.0Q284 -5 282 -5Q280 -5 278.0 -5.0Q276 -5 274 -5L62 624Q49 663 29.0 675.0Q9 687 -7 688V708Q13 707 42.5 706.0Q72 705 100 705Q133 705 161.5 706.0Q190 707 208 708Z"/>
    <path transform="translate(382.60,380.50) scale(0.28249,-0.28249)" d="M323 713 567 84Q582 46 601.0 33.5Q620 21 636 20V0Q616 2 587.0 2.5Q558 3 529 3Q490 3 456.0 2.5Q422 2 401 0V20Q452 22 466.0 37.5Q480 53 460 104L274 601L290 614L116 162Q100 122 97.0 94.5Q94 67 102.5 51.0Q111 35 131.5 28.0Q152 21 183 20V0Q155 2 124.5 2.5Q94 3 68 3Q43 3 25.5 2.5Q8 2 -7 0V20Q13 25 34.0 43.5Q55 62 72 107L307 713Q311 713 315.0 713.0Q319 713 323 713ZM445 288V268H147L157 288Z"/>
    <path transform="translate(577.51,380.50) scale(0.28249,-0.28249)" d="M256 719Q306 719 332.0 707.5Q358 696 378 682Q390 675 397.5 671.5Q405 668 412 668Q422 668 426.5 679.0Q431 690 434 712H457Q456 695 454.5 671.5Q453 648 452.5 609.5Q452 571 452 508H429Q426 556 408.0 600.0Q390 644 355.5 672.0Q321 700 265 700Q212 700 177.5 668.0Q143 636 143 584Q143 539 166.0 508.5Q189 478 227.5 453.5Q266 429 311 401Q363 369 403.5 337.5Q444 306 467.5 268.0Q491 230 491 176Q491 112 462.0 70.0Q433 28 385.0 7.0Q337 -14 279 -14Q226 -14 195.0 -2.0Q164 10 142 23Q120 37 108 37Q98 37 93.5 26.0Q89 15 86 -7H63Q65 14 65.5 42.5Q66 71 66.5 117.0Q67 163 67 233H90Q94 173 112.5 121.0Q131 69 169.5 37.5Q208 6 272 6Q305 6 334.5 19.5Q364 33 383.0 62.5Q402 92 402 139Q402 180 382.5 210.5Q363 241 328.0 267.5Q293 294 246 322Q199 351 158.0 381.0Q117 411 92.5 450.5Q68 490 68 546Q68 605 94.5 643.5Q121 682 164.0 700.5Q207 719 256 719Z"/>
    <path transform="translate(747.01,380.50) scale(0.28249,-0.28249)" d="M323 713 567 84Q582 46 601.0 33.5Q620 21 636 20V0Q616 2 587.0 2.5Q558 3 529 3Q490 3 456.0 2.5Q422 2 401 0V20Q452 22 466.0 37.5Q480 53 460 104L274 601L290 614L116 162Q100 122 97.0 94.5Q94 67 102.5 51.0Q111 35 131.5 28.0Q152 21 183 20V0Q155 2 124.5 2.5Q94 3 68 3Q43 3 25.5 2.5Q8 2 -7 0V20Q13 25 34.0 43.5Q55 62 72 107L307 713Q311 713 315.0 713.0Q319 713 323 713ZM445 288V268H147L157 288Z"/>
    <path transform="translate(941.92,380.50) scale(0.28249,-0.28249)" d="M42 708Q63 707 97.0 706.0Q131 705 164 705Q211 705 254.0 706.0Q297 707 315 707Q420 707 473.0 663.0Q526 619 526 550Q526 515 511.5 481.5Q497 448 463.5 420.5Q430 393 374 376V374Q453 364 497.5 336.5Q542 309 560.0 272.0Q578 235 578 194Q578 137 549.5 93.5Q521 50 467.0 25.0Q413 0 338 0Q316 0 272.0 1.5Q228 3 166 3Q131 3 97.0 2.5Q63 2 42 0V20Q76 22 93.5 28.0Q111 34 117.0 52.0Q123 70 123 106V602Q123 639 117.0 656.5Q111 674 93.5 680.5Q76 687 42 688ZM290 688Q244 688 230.0 671.0Q216 654 216 602V106Q216 71 222.0 53.0Q228 35 244.0 29.0Q260 23 291 23Q389 23 433.5 68.5Q478 114 478 198Q478 275 436.5 317.0Q395 359 300 359H197Q197 359 197.0 367.5Q197 376 197 376H283Q342 376 374.0 398.5Q406 421 418.0 458.5Q430 496 430 539Q430 613 397.5 650.5Q365 688 290 688Z"/>
    <path transform="translate(1134.86,380.50) scale(0.28249,-0.28249)" d="M297 708V688Q263 687 245.5 680.5Q228 674 222.0 656.5Q216 639 216 602V106Q216 70 222.0 52.0Q228 34 245.5 28.0Q263 22 297 20V0Q274 2 239.5 2.5Q205 3 170 3Q131 3 97.0 2.5Q63 2 42 0V20Q76 22 93.5 28.0Q111 34 117.0 52.0Q123 70 123 106V602Q123 639 117.0 656.5Q111 674 93.5 680.5Q76 687 42 688V708Q63 707 97.0 706.0Q131 705 170 705Q205 705 239.5 706.0Q274 707 297 708Z"/>
  </g>
</svg>
