<svg preserveAspectRatio="none" width="100%" height="100%" overflow="visible" style="display: block;" viewBox="0 0 17.6389 17.6391" fill="none" xmlns="http://www.w3.org/2000/svg">
<path id="Vector" d="M17.5875 0.580399C17.5794 0.442788 17.5211 0.312917 17.4237 0.215445C17.3262 0.117973 17.1963 0.0596857 17.0587 0.0516494C9.99184 -0.364601 4.33966 1.75415 1.93872 5.71884C0.303719 8.4179 0.367469 11.6063 2.10653 14.7376L0.179031 16.6651C0.123766 16.7166 0.0794392 16.7787 0.0486952 16.8477C0.0179513 16.9167 0.00142013 16.9912 8.75419e-05 17.0667C-0.00124505 17.1422 0.0126483 17.2172 0.040939 17.2873C0.0692298 17.3573 0.111338 17.421 0.164752 17.4744C0.218166 17.5278 0.281792 17.5699 0.351833 17.5982C0.421874 17.6265 0.496896 17.6404 0.572423 17.639C0.64795 17.6377 0.722435 17.6212 0.791435 17.5904C0.860434 17.5597 0.922535 17.5154 0.974031 17.4601L2.90153 15.5326C4.52059 16.4316 6.15466 16.8835 7.72872 16.8835C9.20841 16.8842 10.6593 16.4746 11.9203 15.7004C15.885 13.2995 18.0028 7.64727 17.5875 0.580399ZM11.3381 14.7366C9.08059 16.1035 6.40309 16.0838 3.73216 14.7001L12.225 6.20727C12.3243 6.10064 12.3784 5.95961 12.3758 5.81388C12.3733 5.66816 12.3142 5.52912 12.2112 5.42606C12.1081 5.323 11.9691 5.26396 11.8234 5.26139C11.6776 5.25882 11.5366 5.31291 11.43 5.41227L2.93716 13.907C1.55341 11.236 1.53091 8.56321 2.90059 6.30102C5.02684 2.79196 10.0847 0.882274 16.4943 1.14946C16.7568 7.55446 14.8472 12.6132 11.3381 14.7385V14.7366Z" fill="var(--fill-0, #EFE7D2)"/>
</svg>
